<svg width="984" height="301" viewBox="0 0 984 301" fill="none" xmlns="http://www.w3.org/2000/svg">
<g filter="url(#filter0_i_7_3)">
<circle cx="239.5" cy="54.5" r="54.5" fill="#F48120"/>
</g>
<g filter="url(#filter1_i_7_3)">
<path fill-rule="evenodd" clip-rule="evenodd" d="M167 1.40959C160.294 0.480274 153.45 0 146.5 0C65.5903 0 0 65.5903 0 146.5C0 227.41 65.5903 293 146.5 293C227.41 293 294 226.91 294 146C294 137.821 293.32 129.804 292.013 122H292H202.834H150V182H196L196.566 181.902C185.577 197.106 167.694 207 147.5 207C114.087 207 87 179.913 87 146.5C87 113.254 113.817 86.2706 147 86.002V86H147.5H167V1.40959Z" fill="#0071BB"/>
</g>
<path d="M340.44 89.76C340.44 75.76 343.94 64.7 351.08 56.58C358.08 48.46 369.14 44.26 384.26 44.26C394.06 44.26 403.16 46.36 411.84 50.28L406.8 62.88C399.66 59.94 392.38 58.4 384.96 58.4C376 58.4 369.14 61.2 364.66 66.52C360.18 71.98 357.94 79.68 357.94 89.76C357.94 110.76 367.04 121.12 385.24 121.12C390.14 121.12 395.04 120.28 399.8 118.46V92.84L414.5 92V129.66C403.58 133.58 393.64 135.4 384.4 135.4C369.14 135.4 357.94 131.48 350.94 123.36C343.94 115.24 340.44 104.04 340.44 89.76ZM430.473 111.32V40.48L446.153 37.82V110.2C446.153 118.18 449.793 122.1 457.353 122.1L455.953 135.4C438.873 135.4 430.473 127.42 430.473 111.32ZM465.388 100.96C465.388 90.18 468.188 81.78 473.928 75.62C479.528 69.6 487.508 66.52 497.868 66.52C508.228 66.52 516.208 69.6 521.808 75.62C527.408 81.64 530.348 90.04 530.348 100.96C530.348 111.88 527.408 120.42 521.808 126.44C516.208 132.46 508.228 135.4 497.868 135.4C487.508 135.4 479.528 132.46 473.928 126.3C468.188 120.28 465.388 111.88 465.388 100.96ZM481.908 100.96C481.908 107.82 483.308 113 486.108 116.5C488.908 120.14 492.828 121.82 497.868 121.82C502.908 121.82 506.828 120.14 509.628 116.5C512.428 113 513.828 107.82 513.828 100.96C513.828 94.24 512.428 89.06 509.628 85.42C506.828 81.92 502.908 80.1 497.868 80.1C492.828 80.1 488.908 81.92 486.108 85.42C483.308 89.06 481.908 94.24 481.908 100.96ZM545.727 129.94V40.48L561.407 37.82V76.6C565.887 69.88 572.327 66.52 580.587 66.52C588.567 66.52 594.867 69.6 599.627 75.62C604.387 81.78 606.767 90.04 606.767 100.68C606.767 111.18 603.827 119.58 597.947 125.88C592.067 132.32 584.087 135.4 574.287 135.4C563.927 135.4 554.407 133.58 545.727 129.94ZM561.407 120.28C565.747 121.4 569.807 121.82 573.727 121.82C579.047 121.82 583.107 120 585.907 116.36C588.707 112.72 590.247 107.4 590.247 100.68C590.247 93.96 588.987 88.92 586.607 85.42C584.227 81.92 581.147 80.1 577.367 80.1C570.367 80.1 565.047 84.16 561.407 92.28V120.28ZM618.513 114.54C618.513 108.66 620.753 103.9 625.233 100.4C629.713 97.04 636.293 95.22 644.693 95.22C649.733 95.22 655.053 95.92 660.513 97.32V93.4C660.513 88.92 659.393 85.56 657.433 83.32C655.333 81.22 651.553 80.1 646.233 80.1C640.913 80.1 634.333 81.5 626.493 84.02L622.293 71.84C631.393 68.34 639.793 66.52 647.493 66.52C657.713 66.52 665.133 68.76 669.613 73.24C674.093 77.72 676.333 84.72 676.333 94.24V129.24C665.133 133.44 655.193 135.4 646.373 135.4C637.413 135.4 630.413 133.72 625.653 130.22C620.893 126.72 618.513 121.54 618.513 114.54ZM646.793 122.1C650.713 122.1 655.193 121.54 660.513 120.28V106.7C655.613 105.58 650.993 104.88 646.513 104.88C638.393 104.88 634.473 107.82 634.473 113.42C634.473 119.3 638.533 122.1 646.793 122.1ZM694.204 111.32V40.48L709.884 37.82V110.2C709.884 118.18 713.524 122.1 721.084 122.1L719.684 135.4C702.604 135.4 694.204 127.42 694.204 111.32Z" fill="#0071BB"/>
<path d="M734.699 134V45.66H751.359V134H734.699ZM765.986 129.8L770.186 116.92C778.166 120.28 785.166 121.82 791.326 121.82C797.906 121.82 801.266 119.58 801.266 115.1C801.266 113.14 800.006 111.6 797.766 110.2C795.526 108.94 792.726 107.82 789.506 106.84C786.286 105.86 783.066 104.74 779.846 103.34C776.626 102.08 773.826 99.98 771.586 97.18C769.346 94.38 768.226 90.74 768.226 86.4C768.226 80.66 770.466 75.9 774.946 72.12C779.426 68.48 785.726 66.52 793.566 66.52C801.266 66.52 808.966 68.34 816.666 71.7L811.766 84.02C805.886 81.5 800.146 80.1 794.546 80.1C788.106 80.1 784.886 82.34 784.886 86.54C784.886 88.5 786.006 90.18 788.246 91.44C790.486 92.84 793.286 93.96 796.646 94.94C799.866 95.92 803.086 97.04 806.306 98.3C809.526 99.7 812.326 101.66 814.566 104.46C816.806 107.26 818.066 110.62 818.066 114.68C818.066 121.12 815.966 126.16 811.766 129.8C807.566 133.58 800.986 135.4 792.026 135.4C783.906 135.4 775.226 133.58 765.986 129.8ZM826.279 129.8L830.479 116.92C838.459 120.28 845.459 121.82 851.619 121.82C858.199 121.82 861.559 119.58 861.559 115.1C861.559 113.14 860.299 111.6 858.059 110.2C855.819 108.94 853.019 107.82 849.799 106.84C846.579 105.86 843.359 104.74 840.139 103.34C836.919 102.08 834.119 99.98 831.879 97.18C829.639 94.38 828.519 90.74 828.519 86.4C828.519 80.66 830.759 75.9 835.239 72.12C839.719 68.48 846.019 66.52 853.859 66.52C861.559 66.52 869.259 68.34 876.959 71.7L872.059 84.02C866.179 81.5 860.439 80.1 854.839 80.1C848.399 80.1 845.179 82.34 845.179 86.54C845.179 88.5 846.299 90.18 848.539 91.44C850.779 92.84 853.579 93.96 856.939 94.94C860.159 95.92 863.379 97.04 866.599 98.3C869.819 99.7 872.619 101.66 874.859 104.46C877.099 107.26 878.359 110.62 878.359 114.68C878.359 121.12 876.259 126.16 872.059 129.8C867.859 133.58 861.279 135.4 852.319 135.4C844.199 135.4 835.519 133.58 826.279 129.8ZM888.532 100.96C888.532 90.18 891.332 81.78 897.072 75.62C902.672 69.6 910.652 66.52 921.012 66.52C931.372 66.52 939.352 69.6 944.952 75.62C950.552 81.64 953.492 90.04 953.492 100.96C953.492 111.88 950.552 120.42 944.952 126.44C939.352 132.46 931.372 135.4 921.012 135.4C910.652 135.4 902.672 132.46 897.072 126.3C891.332 120.28 888.532 111.88 888.532 100.96ZM905.052 100.96C905.052 107.82 906.452 113 909.252 116.5C912.052 120.14 915.972 121.82 921.012 121.82C926.052 121.82 929.972 120.14 932.772 116.5C935.572 113 936.972 107.82 936.972 100.96C936.972 94.24 935.572 89.06 932.772 85.42C929.972 81.92 926.052 80.1 921.012 80.1C915.972 80.1 912.052 81.92 909.252 85.42C906.452 89.06 905.052 94.24 905.052 100.96Z" fill="#F48120"/>
<path d="M347.55 189.7L349.25 184.95C352.85 186.65 356.05 187.45 358.85 187.45C362.35 187.45 364.15 186.1 364.15 183.35C364.15 182.3 363.6 181.4 362.5 180.7C361.4 180 360.1 179.45 358.6 178.95C357.05 178.45 355.5 177.9 354 177.25C352.45 176.65 351.15 175.65 350.05 174.3C348.95 172.95 348.45 171.25 348.45 169.2C348.45 166.3 349.4 164 351.4 162.4C353.35 160.8 356.1 159.95 359.6 159.95C363.25 159.95 366.6 160.7 369.7 162.2L367.85 166.85C364.95 165.65 362.35 165 360 165C356.5 165 354.75 166.35 354.75 169C354.75 170.15 355.25 171.1 356.35 171.85C357.45 172.6 358.75 173.2 360.3 173.7C361.8 174.2 363.35 174.8 364.9 175.4C366.4 176.05 367.7 177 368.8 178.25C369.9 179.55 370.45 181.1 370.45 183C370.45 185.95 369.45 188.25 367.55 189.95C365.65 191.65 362.7 192.5 358.7 192.5C354.9 192.5 351.2 191.6 347.55 189.7ZM374.37 180.2C374.37 176.35 375.37 173.35 377.42 171.15C379.42 169 382.27 167.9 385.97 167.9C389.67 167.9 392.52 169 394.52 171.15C396.52 173.3 397.57 176.3 397.57 180.2C397.57 184.1 396.52 187.15 394.52 189.3C392.52 191.45 389.67 192.5 385.97 192.5C382.27 192.5 379.42 191.45 377.42 189.25C375.37 187.1 374.37 184.1 374.37 180.2ZM380.27 180.2C380.27 182.65 380.77 184.5 381.77 185.75C382.77 187.05 384.17 187.65 385.97 187.65C387.77 187.65 389.17 187.05 390.17 185.75C391.17 184.5 391.67 182.65 391.67 180.2C391.67 177.8 391.17 175.95 390.17 174.65C389.17 173.4 387.77 172.75 385.97 172.75C384.17 172.75 382.77 173.4 381.77 174.65C380.77 175.95 380.27 177.8 380.27 180.2ZM403.062 183.9V158.6L408.662 157.65V183.5C408.662 186.35 409.962 187.75 412.662 187.75L412.162 192.5C406.062 192.5 403.062 189.65 403.062 183.9ZM416.775 183V168.4H422.375V182.4C422.375 185.9 423.675 187.65 426.325 187.65C428.825 187.65 430.725 186.2 431.975 183.2V168.4H437.625V192H433.025L432.525 188.45C430.775 191.15 428.275 192.5 424.975 192.5C422.225 192.5 420.175 191.7 418.825 190C417.425 188.35 416.775 186 416.775 183ZM443.071 180.2C443.071 176.45 444.021 173.45 445.971 171.25C447.871 169.05 450.821 167.9 454.771 167.9C457.471 167.9 460.021 168.4 462.421 169.4L460.971 173.95C458.971 173.15 457.071 172.75 455.271 172.75C453.171 172.75 451.571 173.4 450.521 174.7C449.471 176 448.971 177.8 448.971 180.2C448.971 182.6 449.471 184.45 450.521 185.75C451.571 187.05 453.171 187.65 455.271 187.65C457.121 187.65 459.021 187.25 460.971 186.35L462.421 190.9C460.171 192 457.621 192.5 454.771 192.5C450.721 192.5 447.771 191.45 445.871 189.25C443.971 187.05 443.071 184.05 443.071 180.2ZM471.766 164.15C470.866 164.15 470.066 163.85 469.416 163.2C468.716 162.6 468.416 161.8 468.416 160.9C468.416 160 468.716 159.25 469.416 158.6C470.066 158 470.866 157.65 471.766 157.65C472.616 157.65 473.366 158 474.016 158.6C474.666 159.25 475.016 160 475.016 160.9C475.016 161.8 474.666 162.6 474.016 163.2C473.366 163.85 472.616 164.15 471.766 164.15ZM468.916 192V172.55L464.916 172.25V168.4H474.566V192H468.916ZM480.082 180.2C480.082 176.35 481.082 173.35 483.132 171.15C485.132 169 487.982 167.9 491.682 167.9C495.382 167.9 498.232 169 500.232 171.15C502.232 173.3 503.282 176.3 503.282 180.2C503.282 184.1 502.232 187.15 500.232 189.3C498.232 191.45 495.382 192.5 491.682 192.5C487.982 192.5 485.132 191.45 483.132 189.25C481.082 187.1 480.082 184.1 480.082 180.2ZM485.982 180.2C485.982 182.65 486.482 184.5 487.482 185.75C488.482 187.05 489.882 187.65 491.682 187.65C493.482 187.65 494.882 187.05 495.882 185.75C496.882 184.5 497.382 182.65 497.382 180.2C497.382 177.8 496.882 175.95 495.882 174.65C494.882 173.4 493.482 172.75 491.682 172.75C489.882 172.75 488.482 173.4 487.482 174.65C486.482 175.95 485.982 177.8 485.982 180.2ZM508.775 192V168.4H513.325L513.825 171.95C515.525 169.25 518.075 167.9 521.425 167.9C524.125 167.9 526.125 168.75 527.525 170.45C528.925 172.15 529.625 174.45 529.625 177.4V192H523.975V178C523.975 174.5 522.675 172.75 520.075 172.75C517.575 172.75 515.675 174.25 514.375 177.2V192H508.775ZM534.721 180.25C534.721 176.4 535.671 173.4 537.671 171.2C539.671 169 542.371 167.9 545.821 167.9C549.171 167.9 551.721 169.05 553.471 171.35C555.171 173.65 556.071 176.85 556.071 180.95L555.721 181.5H540.621C540.721 183.55 541.321 185.1 542.421 186.1C543.521 187.15 545.171 187.65 547.421 187.65C549.621 187.65 551.821 187.15 554.071 186.1L555.521 190.45C552.771 191.85 549.871 192.5 546.821 192.5C542.821 192.5 539.771 191.4 537.771 189.2C535.721 187 534.721 184 534.721 180.25ZM540.671 177.75H550.571C550.271 174.3 548.771 172.55 545.971 172.55C544.471 172.55 543.221 173 542.321 173.9C541.421 174.8 540.871 176.05 540.671 177.75ZM559.558 190.5L561.058 185.9C563.908 187.1 566.408 187.65 568.608 187.65C570.958 187.65 572.158 186.85 572.158 185.25C572.158 184.55 571.708 184 570.908 183.5C570.108 183.05 569.108 182.65 567.958 182.3C566.808 181.95 565.658 181.55 564.508 181.05C563.358 180.6 562.358 179.85 561.558 178.85C560.758 177.85 560.358 176.55 560.358 175C560.358 172.95 561.158 171.25 562.758 169.9C564.358 168.6 566.608 167.9 569.408 167.9C572.158 167.9 574.908 168.55 577.658 169.75L575.908 174.15C573.808 173.25 571.758 172.75 569.758 172.75C567.458 172.75 566.308 173.55 566.308 175.05C566.308 175.75 566.708 176.35 567.508 176.8C568.308 177.3 569.308 177.7 570.508 178.05C571.658 178.4 572.808 178.8 573.958 179.25C575.108 179.75 576.108 180.45 576.908 181.45C577.708 182.45 578.158 183.65 578.158 185.1C578.158 187.4 577.408 189.2 575.908 190.5C574.408 191.85 572.058 192.5 568.858 192.5C565.958 192.5 562.858 191.85 559.558 190.5ZM598.72 164.15C597.82 164.15 597.02 163.85 596.37 163.2C595.67 162.6 595.37 161.8 595.37 160.9C595.37 160 595.67 159.25 596.37 158.6C597.02 158 597.82 157.65 598.72 157.65C599.57 157.65 600.32 158 600.97 158.6C601.62 159.25 601.97 160 601.97 160.9C601.97 161.8 601.62 162.6 600.97 163.2C600.32 163.85 599.57 164.15 598.72 164.15ZM595.87 192V172.55L591.87 172.25V168.4H601.52V192H595.87ZM608.336 192V168.4H612.886L613.386 171.95C615.086 169.25 617.636 167.9 620.986 167.9C623.686 167.9 625.686 168.75 627.086 170.45C628.486 172.15 629.186 174.45 629.186 177.4V192H623.536V178C623.536 174.5 622.236 172.75 619.636 172.75C617.136 172.75 615.236 174.25 613.936 177.2V192H608.336ZM637.282 192V172.55L632.732 172.25V168.4H637.282V166.05C637.282 163.3 638.032 161.15 639.582 159.55C641.082 157.95 643.232 157.15 646.032 157.15C648.232 157.15 650.332 157.65 652.332 158.55L650.882 162.95C649.482 162.35 648.182 162 646.882 162C645.632 162 644.632 162.4 643.932 163.15C643.232 163.9 642.882 165 642.882 166.45V168.4H649.532L648.882 172.55H642.882V192H637.282ZM651.567 180.2C651.567 176.35 652.567 173.35 654.617 171.15C656.617 169 659.467 167.9 663.167 167.9C666.867 167.9 669.717 169 671.717 171.15C673.717 173.3 674.767 176.3 674.767 180.2C674.767 184.1 673.717 187.15 671.717 189.3C669.717 191.45 666.867 192.5 663.167 192.5C659.467 192.5 656.617 191.45 654.617 189.25C652.567 187.1 651.567 184.1 651.567 180.2ZM657.467 180.2C657.467 182.65 657.967 184.5 658.967 185.75C659.967 187.05 661.367 187.65 663.167 187.65C664.967 187.65 666.367 187.05 667.367 185.75C668.367 184.5 668.867 182.65 668.867 180.2C668.867 177.8 668.367 175.95 667.367 174.65C666.367 173.4 664.967 172.75 663.167 172.75C661.367 172.75 659.967 173.4 658.967 174.65C657.967 175.95 657.467 177.8 657.467 180.2ZM680.259 192V168.4H684.809L685.459 172.35C687.109 169.4 689.359 167.9 692.259 167.9C693.409 167.9 694.559 168.15 695.709 168.55L694.559 173.2C693.559 172.9 692.659 172.75 691.809 172.75C690.159 172.75 688.859 173.4 687.859 174.7C686.859 176 686.209 177.55 685.859 179.45V192H680.259ZM699.644 192V168.4H704.194L704.744 172.05C706.344 169.3 708.694 167.9 711.894 167.9C715.494 167.9 717.894 169.45 719.094 172.5C720.894 169.45 723.344 167.9 726.544 167.9C729.244 167.9 731.244 168.75 732.594 170.4C733.944 172.1 734.644 174.4 734.644 177.4V192H729.044V178C729.044 174.5 727.744 172.75 725.194 172.75C722.894 172.75 721.144 174.25 719.944 177.15V192H714.344V178C714.344 174.5 713.094 172.75 710.694 172.75C708.244 172.75 706.444 174.25 705.244 177.15V192H699.644ZM739.75 185.05C739.75 182.95 740.55 181.25 742.15 180C743.75 178.8 746.1 178.15 749.1 178.15C750.9 178.15 752.8 178.4 754.75 178.9V177.5C754.75 175.9 754.35 174.7 753.65 173.9C752.9 173.15 751.55 172.75 749.65 172.75C747.75 172.75 745.4 173.25 742.6 174.15L741.1 169.8C744.35 168.55 747.35 167.9 750.1 167.9C753.75 167.9 756.4 168.7 758 170.3C759.6 171.9 760.4 174.4 760.4 177.8V190.3C756.4 191.8 752.85 192.5 749.7 192.5C746.5 192.5 744 191.9 742.3 190.65C740.6 189.4 739.75 187.55 739.75 185.05ZM749.85 187.75C751.25 187.75 752.85 187.55 754.75 187.1V182.25C753 181.85 751.35 181.6 749.75 181.6C746.85 181.6 745.45 182.65 745.45 184.65C745.45 186.75 746.9 187.75 749.85 187.75ZM747.7 164.8L751.3 157.85H756.75L752.1 164.8H747.7ZM768.333 184.15V172.55L763.933 172.25V168.4H768.483L769.083 160.45H773.983V168.4H781.083L780.333 172.55H773.983V183.4C773.983 184.9 774.233 185.95 774.783 186.65C775.333 187.35 776.233 187.65 777.433 187.65C778.483 187.65 779.733 187.4 781.133 186.85L782.183 191.3C780.083 192.1 778.033 192.5 775.983 192.5C770.883 192.5 768.333 189.75 768.333 184.15ZM790.809 164.15C789.909 164.15 789.109 163.85 788.459 163.2C787.759 162.6 787.459 161.8 787.459 160.9C787.459 160 787.759 159.25 788.459 158.6C789.109 158 789.909 157.65 790.809 157.65C791.659 157.65 792.409 158 793.059 158.6C793.709 159.25 794.059 160 794.059 160.9C794.059 161.8 793.709 162.6 793.059 163.2C792.409 163.85 791.659 164.15 790.809 164.15ZM787.959 192V172.55L783.959 172.25V168.4H793.609V192H787.959ZM799.125 180.2C799.125 176.45 800.075 173.45 802.025 171.25C803.925 169.05 806.875 167.9 810.825 167.9C813.525 167.9 816.075 168.4 818.475 169.4L817.025 173.95C815.025 173.15 813.125 172.75 811.325 172.75C809.225 172.75 807.625 173.4 806.575 174.7C805.525 176 805.025 177.8 805.025 180.2C805.025 182.6 805.525 184.45 806.575 185.75C807.625 187.05 809.225 187.65 811.325 187.65C813.175 187.65 815.075 187.25 817.025 186.35L818.475 190.9C816.225 192 813.675 192.5 810.825 192.5C806.775 192.5 803.825 191.45 801.925 189.25C800.025 187.05 799.125 184.05 799.125 180.2ZM822.221 185.05C822.221 182.95 823.021 181.25 824.621 180C826.221 178.8 828.571 178.15 831.571 178.15C833.371 178.15 835.271 178.4 837.221 178.9V177.5C837.221 175.9 836.821 174.7 836.121 173.9C835.371 173.15 834.021 172.75 832.121 172.75C830.221 172.75 827.871 173.25 825.071 174.15L823.571 169.8C826.821 168.55 829.821 167.9 832.571 167.9C836.221 167.9 838.871 168.7 840.471 170.3C842.071 171.9 842.871 174.4 842.871 177.8V190.3C838.871 191.8 835.321 192.5 832.171 192.5C828.971 192.5 826.471 191.9 824.771 190.65C823.071 189.4 822.221 187.55 822.221 185.05ZM832.321 187.75C833.721 187.75 835.321 187.55 837.221 187.1V182.25C835.471 181.85 833.821 181.6 832.221 181.6C829.321 181.6 827.921 182.65 827.921 184.65C827.921 186.75 829.371 187.75 832.321 187.75ZM847.254 190.5L848.754 185.9C851.604 187.1 854.104 187.65 856.304 187.65C858.654 187.65 859.854 186.85 859.854 185.25C859.854 184.55 859.404 184 858.604 183.5C857.804 183.05 856.804 182.65 855.654 182.3C854.504 181.95 853.354 181.55 852.204 181.05C851.054 180.6 850.054 179.85 849.254 178.85C848.454 177.85 848.054 176.55 848.054 175C848.054 172.95 848.854 171.25 850.454 169.9C852.054 168.6 854.304 167.9 857.104 167.9C859.854 167.9 862.604 168.55 865.354 169.75L863.604 174.15C861.504 173.25 859.454 172.75 857.454 172.75C855.154 172.75 854.004 173.55 854.004 175.05C854.004 175.75 854.404 176.35 855.204 176.8C856.004 177.3 857.004 177.7 858.204 178.05C859.354 178.4 860.504 178.8 861.654 179.25C862.804 179.75 863.804 180.45 864.604 181.45C865.404 182.45 865.854 183.65 865.854 185.1C865.854 187.4 865.104 189.2 863.604 190.5C862.104 191.85 859.754 192.5 856.554 192.5C853.654 192.5 850.554 191.85 847.254 190.5ZM350.7 261.3C353.25 262.35 355.75 262.85 358.2 262.85C360.3 262.85 361.85 262.35 362.85 261.3C363.85 260.25 364.35 258.65 364.35 256.45V253.55C362.75 255.85 360.4 257 357.35 257C354.6 257 352.55 256.2 351.2 254.5C349.8 252.85 349.15 250.5 349.15 247.5V233.4H354.8V246.9C354.8 250.4 356.1 252.15 358.7 252.15C361.2 252.15 363.1 250.7 364.35 247.7V233.4H370V256.45C370 263.95 366.15 267.7 358.5 267.7C355.1 267.7 352 267.1 349.15 265.8L350.7 261.3ZM389.671 249.15V237.55L385.271 237.25V233.4H389.821L390.421 225.45H395.321V233.4H402.421L401.671 237.55H395.321V248.4C395.321 249.9 395.571 250.95 396.121 251.65C396.671 252.35 397.571 252.65 398.771 252.65C399.821 252.65 401.071 252.4 402.471 251.85L403.521 256.3C401.421 257.1 399.371 257.5 397.321 257.5C392.221 257.5 389.671 254.75 389.671 249.15ZM406.547 245.25C406.547 241.4 407.497 238.4 409.497 236.2C411.497 234 414.197 232.9 417.647 232.9C420.997 232.9 423.547 234.05 425.297 236.35C426.997 238.65 427.897 241.85 427.897 245.95L427.547 246.5H412.447C412.547 248.55 413.147 250.1 414.247 251.1C415.347 252.15 416.997 252.65 419.247 252.65C421.447 252.65 423.647 252.15 425.897 251.1L427.347 255.45C424.597 256.85 421.697 257.5 418.647 257.5C414.647 257.5 411.597 256.4 409.597 254.2C407.547 252 406.547 249 406.547 245.25ZM412.497 242.75H422.397C422.097 239.3 420.597 237.55 417.797 237.55C416.297 237.55 415.047 238 414.147 238.9C413.247 239.8 412.697 241.05 412.497 242.75ZM432.084 245.2C432.084 241.45 433.034 238.45 434.984 236.25C436.884 234.05 439.834 232.9 443.784 232.9C446.484 232.9 449.034 233.4 451.434 234.4L449.984 238.95C447.984 238.15 446.084 237.75 444.284 237.75C442.184 237.75 440.584 238.4 439.534 239.7C438.484 241 437.984 242.8 437.984 245.2C437.984 247.6 438.484 249.45 439.534 250.75C440.584 252.05 442.184 252.65 444.284 252.65C446.134 252.65 448.034 252.25 449.984 251.35L451.434 255.9C449.184 257 446.634 257.5 443.784 257.5C439.734 257.5 436.784 256.45 434.884 254.25C432.984 252.05 432.084 249.05 432.084 245.2ZM456.48 257V233.4H461.03L461.53 236.95C463.23 234.25 465.78 232.9 469.13 232.9C471.83 232.9 473.83 233.75 475.23 235.45C476.63 237.15 477.33 239.45 477.33 242.4V257H471.68V243C471.68 239.5 470.38 237.75 467.78 237.75C465.28 237.75 463.38 239.25 462.08 242.2V257H456.48ZM482.426 245.2C482.426 241.35 483.426 238.35 485.476 236.15C487.476 234 490.326 232.9 494.026 232.9C497.726 232.9 500.576 234 502.576 236.15C504.576 238.3 505.626 241.3 505.626 245.2C505.626 249.1 504.576 252.15 502.576 254.3C500.576 256.45 497.726 257.5 494.026 257.5C490.326 257.5 487.476 256.45 485.476 254.25C483.426 252.1 482.426 249.1 482.426 245.2ZM488.326 245.2C488.326 247.65 488.826 249.5 489.826 250.75C490.826 252.05 492.226 252.65 494.026 252.65C495.826 252.65 497.226 252.05 498.226 250.75C499.226 249.5 499.726 247.65 499.726 245.2C499.726 242.8 499.226 240.95 498.226 239.65C497.226 238.4 495.826 237.75 494.026 237.75C492.226 237.75 490.826 238.4 489.826 239.65C488.826 240.95 488.326 242.8 488.326 245.2ZM511.119 248.9V223.6L516.719 222.65V248.5C516.719 251.35 518.019 252.75 520.719 252.75L520.219 257.5C514.119 257.5 511.119 254.65 511.119 248.9ZM523.588 245.2C523.588 241.35 524.588 238.35 526.638 236.15C528.638 234 531.488 232.9 535.188 232.9C538.888 232.9 541.738 234 543.738 236.15C545.738 238.3 546.788 241.3 546.788 245.2C546.788 249.1 545.738 252.15 543.738 254.3C541.738 256.45 538.888 257.5 535.188 257.5C531.488 257.5 528.638 256.45 526.638 254.25C524.588 252.1 523.588 249.1 523.588 245.2ZM529.488 245.2C529.488 247.65 529.988 249.5 530.988 250.75C531.988 252.05 533.388 252.65 535.188 252.65C536.988 252.65 538.388 252.05 539.388 250.75C540.388 249.5 540.888 247.65 540.888 245.2C540.888 242.8 540.388 240.95 539.388 239.65C538.388 238.4 536.988 237.75 535.188 237.75C533.388 237.75 531.988 238.4 530.988 239.65C529.988 240.95 529.488 242.8 529.488 245.2ZM533.088 229.8L536.688 222.85H542.138L537.488 229.8H533.088ZM553.281 261.35C555.931 262.35 558.431 262.85 560.731 262.85C565.031 262.85 567.181 260.8 567.181 256.7V253.4C565.531 255.8 563.231 257 560.331 257C557.481 257 555.231 255.95 553.531 253.85C551.831 251.75 550.981 248.85 550.981 245.05C550.981 241.35 552.031 238.4 554.131 236.2C556.231 234 559.131 232.9 562.831 232.9C566.331 232.9 569.681 233.55 572.831 234.85V256.7C572.831 260.2 571.831 262.9 569.881 264.8C567.931 266.75 564.931 267.7 560.931 267.7C557.731 267.7 554.681 267.1 551.731 265.85L553.281 261.35ZM561.531 252.15C563.981 252.15 565.881 250.7 567.181 247.8V238.25C565.881 237.95 564.431 237.75 562.831 237.75C560.931 237.75 559.431 238.4 558.431 239.65C557.381 240.9 556.881 242.7 556.881 245.05C556.881 247.45 557.281 249.25 558.131 250.4C558.981 251.6 560.131 252.15 561.531 252.15ZM583.876 229.15C582.976 229.15 582.176 228.85 581.526 228.2C580.826 227.6 580.526 226.8 580.526 225.9C580.526 225 580.826 224.25 581.526 223.6C582.176 223 582.976 222.65 583.876 222.65C584.726 222.65 585.476 223 586.126 223.6C586.776 224.25 587.126 225 587.126 225.9C587.126 226.8 586.776 227.6 586.126 228.2C585.476 228.85 584.726 229.15 583.876 229.15ZM581.026 257V237.55L577.026 237.25V233.4H586.676V257H581.026ZM592.192 245.2C592.192 241.45 593.142 238.45 595.092 236.25C596.992 234.05 599.942 232.9 603.892 232.9C606.592 232.9 609.142 233.4 611.542 234.4L610.092 238.95C608.092 238.15 606.192 237.75 604.392 237.75C602.292 237.75 600.692 238.4 599.642 239.7C598.592 241 598.092 242.8 598.092 245.2C598.092 247.6 598.592 249.45 599.642 250.75C600.692 252.05 602.292 252.65 604.392 252.65C606.242 252.65 608.142 252.25 610.092 251.35L611.542 255.9C609.292 257 606.742 257.5 603.892 257.5C599.842 257.5 596.892 256.45 594.992 254.25C593.092 252.05 592.192 249.05 592.192 245.2ZM615.288 250.05C615.288 247.95 616.088 246.25 617.688 245C619.288 243.8 621.638 243.15 624.638 243.15C626.438 243.15 628.338 243.4 630.288 243.9V242.5C630.288 240.9 629.888 239.7 629.188 238.9C628.438 238.15 627.088 237.75 625.188 237.75C623.288 237.75 620.938 238.25 618.138 239.15L616.638 234.8C619.888 233.55 622.888 232.9 625.638 232.9C629.288 232.9 631.938 233.7 633.538 235.3C635.138 236.9 635.938 239.4 635.938 242.8V255.3C631.938 256.8 628.388 257.5 625.238 257.5C622.038 257.5 619.538 256.9 617.838 255.65C616.138 254.4 615.288 252.55 615.288 250.05ZM625.388 252.75C626.788 252.75 628.388 252.55 630.288 252.1V247.25C628.538 246.85 626.888 246.6 625.288 246.6C622.388 246.6 620.988 247.65 620.988 249.65C620.988 251.75 622.438 252.75 625.388 252.75ZM640.32 255.5L641.82 250.9C644.67 252.1 647.17 252.65 649.37 252.65C651.72 252.65 652.92 251.85 652.92 250.25C652.92 249.55 652.47 249 651.67 248.5C650.87 248.05 649.87 247.65 648.72 247.3C647.57 246.95 646.42 246.55 645.27 246.05C644.12 245.6 643.12 244.85 642.32 243.85C641.52 242.85 641.12 241.55 641.12 240C641.12 237.95 641.92 236.25 643.52 234.9C645.12 233.6 647.37 232.9 650.17 232.9C652.92 232.9 655.67 233.55 658.42 234.75L656.67 239.15C654.57 238.25 652.52 237.75 650.52 237.75C648.22 237.75 647.07 238.55 647.07 240.05C647.07 240.75 647.47 241.35 648.27 241.8C649.07 242.3 650.07 242.7 651.27 243.05C652.42 243.4 653.57 243.8 654.72 244.25C655.87 244.75 656.87 245.45 657.67 246.45C658.47 247.45 658.92 248.65 658.92 250.1C658.92 252.4 658.17 254.2 656.67 255.5C655.17 256.85 652.82 257.5 649.62 257.5C646.72 257.5 643.62 256.85 640.32 255.5ZM662.653 254.1C662.653 253.15 662.953 252.35 663.653 251.7C664.303 251.05 665.153 250.7 666.153 250.7C667.153 250.7 667.953 251.05 668.653 251.7C669.353 252.35 669.703 253.15 669.703 254.1C669.703 255.1 669.353 255.9 668.653 256.55C667.953 257.2 667.153 257.5 666.153 257.5C665.153 257.5 664.303 257.2 663.653 256.55C662.953 255.9 662.653 255.1 662.653 254.1Z" fill="#1E1E1E"/>
<defs>
<filter id="filter0_i_7_3" x="185" y="0" width="109" height="113" filterUnits="userSpaceOnUse" color-interpolation-filters="sRGB">
<feFlood flood-opacity="0" result="BackgroundImageFix"/>
<feBlend mode="normal" in="SourceGraphic" in2="BackgroundImageFix" result="shape"/>
<feColorMatrix in="SourceAlpha" type="matrix" values="0 0 0 0 0 0 0 0 0 0 0 0 0 0 0 0 0 0 127 0" result="hardAlpha"/>
<feOffset dy="4"/>
<feGaussianBlur stdDeviation="2"/>
<feComposite in2="hardAlpha" operator="arithmetic" k2="-1" k3="1"/>
<feColorMatrix type="matrix" values="0 0 0 0 0 0 0 0 0 0 0 0 0 0 0 0 0 0 0.25 0"/>
<feBlend mode="normal" in2="shape" result="effect1_innerShadow_7_3"/>
</filter>
<filter id="filter1_i_7_3" x="0" y="0" width="294" height="297" filterUnits="userSpaceOnUse" color-interpolation-filters="sRGB">
<feFlood flood-opacity="0" result="BackgroundImageFix"/>
<feBlend mode="normal" in="SourceGraphic" in2="BackgroundImageFix" result="shape"/>
<feColorMatrix in="SourceAlpha" type="matrix" values="0 0 0 0 0 0 0 0 0 0 0 0 0 0 0 0 0 0 127 0" result="hardAlpha"/>
<feOffset dy="4"/>
<feGaussianBlur stdDeviation="2"/>
<feComposite in2="hardAlpha" operator="arithmetic" k2="-1" k3="1"/>
<feColorMatrix type="matrix" values="0 0 0 0 0 0 0 0 0 0 0 0 0 0 0 0 0 0 0.25 0"/>
<feBlend mode="normal" in2="shape" result="effect1_innerShadow_7_3"/>
</filter>
</defs>
</svg>
