<?xml version="1.0" standalone="no"?>
<!DOCTYPE svg PUBLIC "-//W3C//DTD SVG 20010904//EN"
 "http://www.w3.org/TR/2001/REC-SVG-20010904/DTD/svg10.dtd">
<svg version="1.0" xmlns="http://www.w3.org/2000/svg"
 width="64.000000pt" height="64.000000pt" viewBox="0 0 64.000000 64.000000"
 preserveAspectRatio="xMidYMid meet">

<g transform="translate(0.000000,64.000000) scale(0.100000,-0.100000)"
fill="#000000" stroke="none">
<path d="M183 297 c-56 -34 -106 -66 -110 -70 -4 -5 -10 -50 -13 -100 -5 -86
-6 -92 -27 -95 -36 -5 -27 -22 12 -22 l35 0 0 86 c0 47 4 93 10 103 5 10 57
46 116 81 99 57 108 61 123 45 15 -15 14 -18 -10 -38 -15 -12 -41 -30 -58 -39
-96 -52 51 -143 176 -109 23 6 65 30 93 52 47 37 80 45 80 20 0 -17 -84 -82
-148 -113 -80 -40 -185 -49 -281 -24 -35 9 -66 14 -69 11 -13 -12 19 -27 94
-42 65 -13 91 -14 146 -5 85 15 159 48 226 101 55 44 66 75 36 105 -23 23 -37
20 -86 -20 -55 -47 -96 -64 -153 -64 -47 0 -107 20 -119 39 -4 6 15 24 44 42
64 39 77 62 55 95 -24 37 -59 29 -172 -39z"/>
</g>
</svg>
