<?xml version="1.0" standalone="no"?>
<!DOCTYPE svg PUBLIC "-//W3C//DTD SVG 20010904//EN"
 "http://www.w3.org/TR/2001/REC-SVG-20010904/DTD/svg10.dtd">
<svg version="1.0" xmlns="http://www.w3.org/2000/svg"
 width="64.000000pt" height="64.000000pt" viewBox="0 0 64.000000 64.000000"
 preserveAspectRatio="xMidYMid meet">

<g transform="translate(0.000000,64.000000) scale(0.100000,-0.100000)"
fill="#000000" stroke="none">
<path d="M244 466 c-48 -48 -48 -104 0 -152 28 -28 42 -34 76 -34 34 0 48 6
76 34 28 28 34 42 34 76 0 60 -50 110 -110 110 -34 0 -48 -6 -76 -34z m115 -1
c16 -8 34 -28 41 -45 28 -67 -44 -138 -111 -110 -44 19 -66 68 -49 110 12 29
50 59 78 60 7 0 26 -7 41 -15z"/>
<path d="M224 206 c-59 -28 -128 -106 -94 -106 6 0 24 15 40 34 40 45 87 66
150 66 63 0 110 -21 150 -66 27 -31 50 -44 50 -27 0 3 -12 22 -26 41 -34 43
-115 82 -174 82 -26 0 -66 -10 -96 -24z"/>
</g>
</svg>
