<?xml version="1.0" standalone="no"?>
<!DOCTYPE svg PUBLIC "-//W3C//DTD SVG 20010904//EN"
 "http://www.w3.org/TR/2001/REC-SVG-20010904/DTD/svg10.dtd">
<svg version="1.0" xmlns="http://www.w3.org/2000/svg"
 width="64.000000pt" height="64.000000pt" viewBox="0 0 64.000000 64.000000"
 preserveAspectRatio="xMidYMid meet">

<g transform="translate(0.000000,64.000000) scale(0.100000,-0.100000)"
fill="#000000" stroke="none">
<path d="M500 420 c0 -6 28 -10 65 -10 37 0 65 4 65 10 0 6 -28 10 -65 10 -37
0 -65 -4 -65 -10z"/>
<path d="M166 280 c-25 -27 -46 -54 -46 -60 0 -6 11 -22 25 -36 14 -14 25 -33
25 -42 0 -23 19 -42 42 -42 9 0 29 -12 43 -26 16 -16 32 -23 42 -20 10 4 21
-1 30 -14 27 -38 60 -25 143 55 55 54 82 74 94 69 9 -3 28 1 42 11 34 22 31
73 -7 94 -24 13 -29 13 -53 -2 -19 -13 -26 -26 -26 -51 0 -28 -11 -44 -76
-106 -69 -67 -76 -72 -91 -57 -15 14 -15 18 1 42 24 37 11 44 -22 12 -32 -30
-44 -33 -61 -13 -8 10 -6 19 10 40 33 42 17 52 -25 16 -34 -31 -38 -32 -54
-17 -15 16 -14 19 16 50 51 52 41 79 -10 30 -27 -25 -29 -26 -45 -10 -16 16
-15 19 25 60 40 40 53 67 33 67 -4 0 -29 -22 -55 -50z m434 -45 c10 -12 10
-18 0 -30 -7 -8 -18 -15 -25 -15 -7 0 -18 7 -25 15 -10 12 -10 18 0 30 7 8 18
15 25 15 7 0 18 -7 25 -15z"/>
</g>
</svg>
