<svg width="614" height="99" viewBox="0 0 614 99" fill="none" xmlns="http://www.w3.org/2000/svg">
<path d="M0.440001 52.76C0.440001 38.76 3.94 27.7 11.08 19.58C18.08 11.46 29.14 7.26 44.26 7.26C54.06 7.26 63.16 9.35999 71.84 13.28L66.8 25.88C59.66 22.94 52.38 21.4 44.96 21.4C36 21.4 29.14 24.2 24.66 29.52C20.18 34.98 17.94 42.68 17.94 52.76C17.94 73.76 27.04 84.12 45.24 84.12C50.14 84.12 55.04 83.28 59.8 81.46V55.84L74.5 55V92.66C63.58 96.58 53.64 98.4 44.4 98.4C29.14 98.4 17.94 94.48 10.94 86.36C3.94 78.24 0.440001 67.04 0.440001 52.76ZM90.4731 74.32V3.47999L106.153 0.819995V73.2C106.153 81.18 109.793 85.1 117.353 85.1L115.953 98.4C98.8731 98.4 90.4731 90.42 90.4731 74.32ZM125.388 63.96C125.388 53.18 128.188 44.78 133.928 38.62C139.528 32.6 147.508 29.52 157.868 29.52C168.228 29.52 176.208 32.6 181.808 38.62C187.408 44.64 190.348 53.04 190.348 63.96C190.348 74.88 187.408 83.42 181.808 89.44C176.208 95.46 168.228 98.4 157.868 98.4C147.508 98.4 139.528 95.46 133.928 89.3C128.188 83.28 125.388 74.88 125.388 63.96ZM141.908 63.96C141.908 70.82 143.308 76 146.108 79.5C148.908 83.14 152.828 84.82 157.868 84.82C162.908 84.82 166.828 83.14 169.628 79.5C172.428 76 173.828 70.82 173.828 63.96C173.828 57.24 172.428 52.06 169.628 48.42C166.828 44.92 162.908 43.1 157.868 43.1C152.828 43.1 148.908 44.92 146.108 48.42C143.308 52.06 141.908 57.24 141.908 63.96ZM205.727 92.94V3.47999L221.407 0.819995V39.6C225.887 32.88 232.327 29.52 240.587 29.52C248.567 29.52 254.867 32.6 259.627 38.62C264.387 44.78 266.767 53.04 266.767 63.68C266.767 74.18 263.827 82.58 257.947 88.88C252.067 95.32 244.087 98.4 234.287 98.4C223.927 98.4 214.407 96.58 205.727 92.94ZM221.407 83.28C225.747 84.4 229.807 84.82 233.727 84.82C239.047 84.82 243.107 83 245.907 79.36C248.707 75.72 250.247 70.4 250.247 63.68C250.247 56.96 248.987 51.92 246.607 48.42C244.227 44.92 241.147 43.1 237.367 43.1C230.367 43.1 225.047 47.16 221.407 55.28V83.28ZM278.513 77.54C278.513 71.66 280.753 66.9 285.233 63.4C289.713 60.04 296.293 58.22 304.693 58.22C309.733 58.22 315.053 58.92 320.513 60.32V56.4C320.513 51.92 319.393 48.56 317.433 46.32C315.333 44.22 311.553 43.1 306.233 43.1C300.913 43.1 294.333 44.5 286.493 47.02L282.293 34.84C291.393 31.34 299.793 29.52 307.493 29.52C317.713 29.52 325.133 31.76 329.613 36.24C334.093 40.72 336.333 47.72 336.333 57.24V92.24C325.133 96.44 315.193 98.4 306.373 98.4C297.413 98.4 290.413 96.72 285.653 93.22C280.893 89.72 278.513 84.54 278.513 77.54ZM306.793 85.1C310.713 85.1 315.193 84.54 320.513 83.28V69.7C315.613 68.58 310.993 67.88 306.513 67.88C298.393 67.88 294.473 70.82 294.473 76.42C294.473 82.3 298.533 85.1 306.793 85.1ZM354.204 74.32V3.47999L369.884 0.819995V73.2C369.884 81.18 373.524 85.1 381.084 85.1L379.684 98.4C362.604 98.4 354.204 90.42 354.204 74.32Z" fill="#0071BB"/>
<path d="M394.699 97V8.65999H411.359V97H394.699ZM425.986 92.8L430.186 79.92C438.166 83.28 445.166 84.82 451.326 84.82C457.906 84.82 461.266 82.58 461.266 78.1C461.266 76.14 460.006 74.6 457.766 73.2C455.526 71.94 452.726 70.82 449.506 69.84C446.286 68.86 443.066 67.74 439.846 66.34C436.626 65.08 433.826 62.98 431.586 60.18C429.346 57.38 428.226 53.74 428.226 49.4C428.226 43.66 430.466 38.9 434.946 35.12C439.426 31.48 445.726 29.52 453.566 29.52C461.266 29.52 468.966 31.34 476.666 34.7L471.766 47.02C465.886 44.5 460.146 43.1 454.546 43.1C448.106 43.1 444.886 45.34 444.886 49.54C444.886 51.5 446.006 53.18 448.246 54.44C450.486 55.84 453.286 56.96 456.646 57.94C459.866 58.92 463.086 60.04 466.306 61.3C469.526 62.7 472.326 64.66 474.566 67.46C476.806 70.26 478.066 73.62 478.066 77.68C478.066 84.12 475.966 89.16 471.766 92.8C467.566 96.58 460.986 98.4 452.026 98.4C443.906 98.4 435.226 96.58 425.986 92.8ZM486.279 92.8L490.479 79.92C498.459 83.28 505.459 84.82 511.619 84.82C518.199 84.82 521.559 82.58 521.559 78.1C521.559 76.14 520.299 74.6 518.059 73.2C515.819 71.94 513.019 70.82 509.799 69.84C506.579 68.86 503.359 67.74 500.139 66.34C496.919 65.08 494.119 62.98 491.879 60.18C489.639 57.38 488.519 53.74 488.519 49.4C488.519 43.66 490.759 38.9 495.239 35.12C499.719 31.48 506.019 29.52 513.859 29.52C521.559 29.52 529.259 31.34 536.959 34.7L532.059 47.02C526.179 44.5 520.439 43.1 514.839 43.1C508.399 43.1 505.179 45.34 505.179 49.54C505.179 51.5 506.299 53.18 508.539 54.44C510.779 55.84 513.579 56.96 516.939 57.94C520.159 58.92 523.379 60.04 526.599 61.3C529.819 62.7 532.619 64.66 534.859 67.46C537.099 70.26 538.359 73.62 538.359 77.68C538.359 84.12 536.259 89.16 532.059 92.8C527.859 96.58 521.279 98.4 512.319 98.4C504.199 98.4 495.519 96.58 486.279 92.8ZM548.532 63.96C548.532 53.18 551.332 44.78 557.072 38.62C562.672 32.6 570.652 29.52 581.012 29.52C591.372 29.52 599.352 32.6 604.952 38.62C610.552 44.64 613.492 53.04 613.492 63.96C613.492 74.88 610.552 83.42 604.952 89.44C599.352 95.46 591.372 98.4 581.012 98.4C570.652 98.4 562.672 95.46 557.072 89.3C551.332 83.28 548.532 74.88 548.532 63.96ZM565.052 63.96C565.052 70.82 566.452 76 569.252 79.5C572.052 83.14 575.972 84.82 581.012 84.82C586.052 84.82 589.972 83.14 592.772 79.5C595.572 76 596.972 70.82 596.972 63.96C596.972 57.24 595.572 52.06 592.772 48.42C589.972 44.92 586.052 43.1 581.012 43.1C575.972 43.1 572.052 44.92 569.252 48.42C566.452 52.06 565.052 57.24 565.052 63.96Z" fill="#F48120"/>
</svg>
