<svg width="294" height="293" viewBox="0 0 294 293" fill="none" xmlns="http://www.w3.org/2000/svg">
<g filter="url(#filter0_i_1_57)">
<circle cx="239.5" cy="54.5" r="54.5" fill="#F48120"/>
</g>
<g filter="url(#filter1_i_1_57)">
<path fill-rule="evenodd" clip-rule="evenodd" d="M167 1.40959C160.294 0.480274 153.45 0 146.5 0C65.5903 0 0 65.5903 0 146.5C0 227.41 65.5903 293 146.5 293C227.41 293 294 226.91 294 146C294 137.821 293.32 129.804 292.013 122H292H202.834H150V182H196L196.566 181.902C185.577 197.106 167.694 207 147.5 207C114.087 207 87 179.913 87 146.5C87 113.254 113.817 86.2706 147 86.002V86H147.5H167V1.40959Z" fill="#0071BB"/>
</g>
<defs>
<filter id="filter0_i_1_57" x="185" y="0" width="109" height="113" filterUnits="userSpaceOnUse" color-interpolation-filters="sRGB">
<feFlood flood-opacity="0" result="BackgroundImageFix"/>
<feBlend mode="normal" in="SourceGraphic" in2="BackgroundImageFix" result="shape"/>
<feColorMatrix in="SourceAlpha" type="matrix" values="0 0 0 0 0 0 0 0 0 0 0 0 0 0 0 0 0 0 127 0" result="hardAlpha"/>
<feOffset dy="4"/>
<feGaussianBlur stdDeviation="2"/>
<feComposite in2="hardAlpha" operator="arithmetic" k2="-1" k3="1"/>
<feColorMatrix type="matrix" values="0 0 0 0 0 0 0 0 0 0 0 0 0 0 0 0 0 0 0.25 0"/>
<feBlend mode="normal" in2="shape" result="effect1_innerShadow_1_57"/>
</filter>
<filter id="filter1_i_1_57" x="0" y="0" width="294" height="297" filterUnits="userSpaceOnUse" color-interpolation-filters="sRGB">
<feFlood flood-opacity="0" result="BackgroundImageFix"/>
<feBlend mode="normal" in="SourceGraphic" in2="BackgroundImageFix" result="shape"/>
<feColorMatrix in="SourceAlpha" type="matrix" values="0 0 0 0 0 0 0 0 0 0 0 0 0 0 0 0 0 0 127 0" result="hardAlpha"/>
<feOffset dy="4"/>
<feGaussianBlur stdDeviation="2"/>
<feComposite in2="hardAlpha" operator="arithmetic" k2="-1" k3="1"/>
<feColorMatrix type="matrix" values="0 0 0 0 0 0 0 0 0 0 0 0 0 0 0 0 0 0 0.25 0"/>
<feBlend mode="normal" in2="shape" result="effect1_innerShadow_1_57"/>
</filter>
</defs>
</svg>
