<svg width="519" height="111" viewBox="0 0 519 111" fill="none" xmlns="http://www.w3.org/2000/svg">
<path d="M0.55 32.7L2.25 27.95C5.85 29.65 9.05 30.45 11.85 30.45C15.35 30.45 17.15 29.1 17.15 26.35C17.15 25.3 16.6 24.4 15.5 23.7C14.4 23 13.1 22.45 11.6 21.95C10.05 21.45 8.5 20.9 7 20.25C5.45 19.65 4.15 18.65 3.05 17.3C1.95 15.95 1.45 14.25 1.45 12.2C1.45 9.3 2.4 7 4.4 5.4C6.35 3.8 9.1 2.95 12.6 2.95C16.25 2.95 19.6 3.7 22.7 5.2L20.85 9.85C17.95 8.65 15.35 8 13 8C9.5 8 7.75 9.35 7.75 12C7.75 13.15 8.25 14.1 9.35 14.85C10.45 15.6 11.75 16.2 13.3 16.7C14.8 17.2 16.35 17.8 17.9 18.4C19.4 19.05 20.7 20 21.8 21.25C22.9 22.55 23.45 24.1 23.45 26C23.45 28.95 22.45 31.25 20.55 32.95C18.65 34.65 15.7 35.5 11.7 35.5C7.9 35.5 4.2 34.6 0.55 32.7ZM27.3695 23.2C27.3695 19.35 28.3695 16.35 30.4195 14.15C32.4195 12 35.2695 10.9 38.9695 10.9C42.6695 10.9 45.5195 12 47.5195 14.15C49.5195 16.3 50.5695 19.3 50.5695 23.2C50.5695 27.1 49.5195 30.15 47.5195 32.3C45.5195 34.45 42.6695 35.5 38.9695 35.5C35.2695 35.5 32.4195 34.45 30.4195 32.25C28.3695 30.1 27.3695 27.1 27.3695 23.2ZM33.2695 23.2C33.2695 25.65 33.7695 27.5 34.7695 28.75C35.7695 30.05 37.1695 30.65 38.9695 30.65C40.7695 30.65 42.1695 30.05 43.1695 28.75C44.1695 27.5 44.6695 25.65 44.6695 23.2C44.6695 20.8 44.1695 18.95 43.1695 17.65C42.1695 16.4 40.7695 15.75 38.9695 15.75C37.1695 15.75 35.7695 16.4 34.7695 17.65C33.7695 18.95 33.2695 20.8 33.2695 23.2ZM56.0621 26.9V1.6L61.6621 0.649998V26.5C61.6621 29.35 62.9621 30.75 65.6621 30.75L65.1621 35.5C59.0621 35.5 56.0621 32.65 56.0621 26.9ZM69.7746 26V11.4H75.3746V25.4C75.3746 28.9 76.6746 30.65 79.3246 30.65C81.8246 30.65 83.7246 29.2 84.9746 26.2V11.4H90.6246V35H86.0246L85.5246 31.45C83.7746 34.15 81.2746 35.5 77.9746 35.5C75.2246 35.5 73.1746 34.7 71.8246 33C70.4246 31.35 69.7746 29 69.7746 26ZM96.0707 23.2C96.0707 19.45 97.0207 16.45 98.9707 14.25C100.871 12.05 103.821 10.9 107.771 10.9C110.471 10.9 113.021 11.4 115.421 12.4L113.971 16.95C111.971 16.15 110.071 15.75 108.271 15.75C106.171 15.75 104.571 16.4 103.521 17.7C102.471 19 101.971 20.8 101.971 23.2C101.971 25.6 102.471 27.45 103.521 28.75C104.571 30.05 106.171 30.65 108.271 30.65C110.121 30.65 112.021 30.25 113.971 29.35L115.421 33.9C113.171 35 110.621 35.5 107.771 35.5C103.721 35.5 100.771 34.45 98.8707 32.25C96.9707 30.05 96.0707 27.05 96.0707 23.2ZM124.766 7.15C123.866 7.15 123.066 6.85 122.416 6.2C121.716 5.6 121.416 4.8 121.416 3.9C121.416 3 121.716 2.25 122.416 1.6C123.066 1 123.866 0.649998 124.766 0.649998C125.616 0.649998 126.366 1 127.016 1.6C127.666 2.25 128.016 3 128.016 3.9C128.016 4.8 127.666 5.6 127.016 6.2C126.366 6.85 125.616 7.15 124.766 7.15ZM121.916 35V15.55L117.916 15.25V11.4H127.566V35H121.916ZM133.082 23.2C133.082 19.35 134.082 16.35 136.132 14.15C138.132 12 140.982 10.9 144.682 10.9C148.382 10.9 151.232 12 153.232 14.15C155.232 16.3 156.282 19.3 156.282 23.2C156.282 27.1 155.232 30.15 153.232 32.3C151.232 34.45 148.382 35.5 144.682 35.5C140.982 35.5 138.132 34.45 136.132 32.25C134.082 30.1 133.082 27.1 133.082 23.2ZM138.982 23.2C138.982 25.65 139.482 27.5 140.482 28.75C141.482 30.05 142.882 30.65 144.682 30.65C146.482 30.65 147.882 30.05 148.882 28.75C149.882 27.5 150.382 25.65 150.382 23.2C150.382 20.8 149.882 18.95 148.882 17.65C147.882 16.4 146.482 15.75 144.682 15.75C142.882 15.75 141.482 16.4 140.482 17.65C139.482 18.95 138.982 20.8 138.982 23.2ZM161.775 35V11.4H166.325L166.825 14.95C168.525 12.25 171.075 10.9 174.425 10.9C177.125 10.9 179.125 11.75 180.525 13.45C181.925 15.15 182.625 17.45 182.625 20.4V35H176.975V21C176.975 17.5 175.675 15.75 173.075 15.75C170.575 15.75 168.675 17.25 167.375 20.2V35H161.775ZM187.721 23.25C187.721 19.4 188.671 16.4 190.671 14.2C192.671 12 195.371 10.9 198.821 10.9C202.171 10.9 204.721 12.05 206.471 14.35C208.171 16.65 209.071 19.85 209.071 23.95L208.721 24.5H193.621C193.721 26.55 194.321 28.1 195.421 29.1C196.521 30.15 198.171 30.65 200.421 30.65C202.621 30.65 204.821 30.15 207.071 29.1L208.521 33.45C205.771 34.85 202.871 35.5 199.821 35.5C195.821 35.5 192.771 34.4 190.771 32.2C188.721 30 187.721 27 187.721 23.25ZM193.671 20.75H203.571C203.271 17.3 201.771 15.55 198.971 15.55C197.471 15.55 196.221 16 195.321 16.9C194.421 17.8 193.871 19.05 193.671 20.75ZM212.558 33.5L214.058 28.9C216.908 30.1 219.408 30.65 221.608 30.65C223.958 30.65 225.158 29.85 225.158 28.25C225.158 27.55 224.708 27 223.908 26.5C223.108 26.05 222.108 25.65 220.958 25.3C219.808 24.95 218.658 24.55 217.508 24.05C216.358 23.6 215.358 22.85 214.558 21.85C213.758 20.85 213.358 19.55 213.358 18C213.358 15.95 214.158 14.25 215.758 12.9C217.358 11.6 219.608 10.9 222.408 10.9C225.158 10.9 227.908 11.55 230.658 12.75L228.908 17.15C226.808 16.25 224.758 15.75 222.758 15.75C220.458 15.75 219.308 16.55 219.308 18.05C219.308 18.75 219.708 19.35 220.508 19.8C221.308 20.3 222.308 20.7 223.508 21.05C224.658 21.4 225.808 21.8 226.958 22.25C228.108 22.75 229.108 23.45 229.908 24.45C230.708 25.45 231.158 26.65 231.158 28.1C231.158 30.4 230.408 32.2 228.908 33.5C227.408 34.85 225.058 35.5 221.858 35.5C218.958 35.5 215.858 34.85 212.558 33.5ZM251.72 7.15C250.82 7.15 250.02 6.85 249.37 6.2C248.67 5.6 248.37 4.8 248.37 3.9C248.37 3 248.67 2.25 249.37 1.6C250.02 1 250.82 0.649998 251.72 0.649998C252.57 0.649998 253.32 1 253.97 1.6C254.62 2.25 254.97 3 254.97 3.9C254.97 4.8 254.62 5.6 253.97 6.2C253.32 6.85 252.57 7.15 251.72 7.15ZM248.87 35V15.55L244.87 15.25V11.4H254.52V35H248.87ZM261.336 35V11.4H265.886L266.386 14.95C268.086 12.25 270.636 10.9 273.986 10.9C276.686 10.9 278.686 11.75 280.086 13.45C281.486 15.15 282.186 17.45 282.186 20.4V35H276.536V21C276.536 17.5 275.236 15.75 272.636 15.75C270.136 15.75 268.236 17.25 266.936 20.2V35H261.336ZM290.282 35V15.55L285.732 15.25V11.4H290.282V9.05C290.282 6.3 291.032 4.15 292.582 2.55C294.082 0.949997 296.232 0.149999 299.032 0.149999C301.232 0.149999 303.332 0.649998 305.332 1.55L303.882 5.95C302.482 5.35 301.182 5 299.882 5C298.632 5 297.632 5.4 296.932 6.15C296.232 6.9 295.882 8 295.882 9.45V11.4H302.532L301.882 15.55H295.882V35H290.282ZM304.567 23.2C304.567 19.35 305.567 16.35 307.617 14.15C309.617 12 312.467 10.9 316.167 10.9C319.867 10.9 322.717 12 324.717 14.15C326.717 16.3 327.767 19.3 327.767 23.2C327.767 27.1 326.717 30.15 324.717 32.3C322.717 34.45 319.867 35.5 316.167 35.5C312.467 35.5 309.617 34.45 307.617 32.25C305.567 30.1 304.567 27.1 304.567 23.2ZM310.467 23.2C310.467 25.65 310.967 27.5 311.967 28.75C312.967 30.05 314.367 30.65 316.167 30.65C317.967 30.65 319.367 30.05 320.367 28.75C321.367 27.5 321.867 25.65 321.867 23.2C321.867 20.8 321.367 18.95 320.367 17.65C319.367 16.4 317.967 15.75 316.167 15.75C314.367 15.75 312.967 16.4 311.967 17.65C310.967 18.95 310.467 20.8 310.467 23.2ZM333.259 35V11.4H337.809L338.459 15.35C340.109 12.4 342.359 10.9 345.259 10.9C346.409 10.9 347.559 11.15 348.709 11.55L347.559 16.2C346.559 15.9 345.659 15.75 344.809 15.75C343.159 15.75 341.859 16.4 340.859 17.7C339.859 19 339.209 20.55 338.859 22.45V35H333.259ZM352.644 35V11.4H357.194L357.744 15.05C359.344 12.3 361.694 10.9 364.894 10.9C368.494 10.9 370.894 12.45 372.094 15.5C373.894 12.45 376.344 10.9 379.544 10.9C382.244 10.9 384.244 11.75 385.594 13.4C386.944 15.1 387.644 17.4 387.644 20.4V35H382.044V21C382.044 17.5 380.744 15.75 378.194 15.75C375.894 15.75 374.144 17.25 372.944 20.15V35H367.344V21C367.344 17.5 366.094 15.75 363.694 15.75C361.244 15.75 359.444 17.25 358.244 20.15V35H352.644ZM392.75 28.05C392.75 25.95 393.55 24.25 395.15 23C396.75 21.8 399.1 21.15 402.1 21.15C403.9 21.15 405.8 21.4 407.75 21.9V20.5C407.75 18.9 407.35 17.7 406.65 16.9C405.9 16.15 404.55 15.75 402.65 15.75C400.75 15.75 398.4 16.25 395.6 17.15L394.1 12.8C397.35 11.55 400.35 10.9 403.1 10.9C406.75 10.9 409.4 11.7 411 13.3C412.6 14.9 413.4 17.4 413.4 20.8V33.3C409.4 34.8 405.85 35.5 402.7 35.5C399.5 35.5 397 34.9 395.3 33.65C393.6 32.4 392.75 30.55 392.75 28.05ZM402.85 30.75C404.25 30.75 405.85 30.55 407.75 30.1V25.25C406 24.85 404.35 24.6 402.75 24.6C399.85 24.6 398.45 25.65 398.45 27.65C398.45 29.75 399.9 30.75 402.85 30.75ZM400.7 7.8L404.3 0.849999H409.75L405.1 7.8H400.7ZM421.333 27.15V15.55L416.933 15.25V11.4H421.483L422.083 3.45H426.983V11.4H434.083L433.333 15.55H426.983V26.4C426.983 27.9 427.233 28.95 427.783 29.65C428.333 30.35 429.233 30.65 430.433 30.65C431.483 30.65 432.733 30.4 434.133 29.85L435.183 34.3C433.083 35.1 431.033 35.5 428.983 35.5C423.883 35.5 421.333 32.75 421.333 27.15ZM443.809 7.15C442.909 7.15 442.109 6.85 441.459 6.2C440.759 5.6 440.459 4.8 440.459 3.9C440.459 3 440.759 2.25 441.459 1.6C442.109 1 442.909 0.649998 443.809 0.649998C444.659 0.649998 445.409 1 446.059 1.6C446.709 2.25 447.059 3 447.059 3.9C447.059 4.8 446.709 5.6 446.059 6.2C445.409 6.85 444.659 7.15 443.809 7.15ZM440.959 35V15.55L436.959 15.25V11.4H446.609V35H440.959ZM452.125 23.2C452.125 19.45 453.075 16.45 455.025 14.25C456.925 12.05 459.875 10.9 463.825 10.9C466.525 10.9 469.075 11.4 471.475 12.4L470.025 16.95C468.025 16.15 466.125 15.75 464.325 15.75C462.225 15.75 460.625 16.4 459.575 17.7C458.525 19 458.025 20.8 458.025 23.2C458.025 25.6 458.525 27.45 459.575 28.75C460.625 30.05 462.225 30.65 464.325 30.65C466.175 30.65 468.075 30.25 470.025 29.35L471.475 33.9C469.225 35 466.675 35.5 463.825 35.5C459.775 35.5 456.825 34.45 454.925 32.25C453.025 30.05 452.125 27.05 452.125 23.2ZM475.221 28.05C475.221 25.95 476.021 24.25 477.621 23C479.221 21.8 481.571 21.15 484.571 21.15C486.371 21.15 488.271 21.4 490.221 21.9V20.5C490.221 18.9 489.821 17.7 489.121 16.9C488.371 16.15 487.021 15.75 485.121 15.75C483.221 15.75 480.871 16.25 478.071 17.15L476.571 12.8C479.821 11.55 482.821 10.9 485.571 10.9C489.221 10.9 491.871 11.7 493.471 13.3C495.071 14.9 495.871 17.4 495.871 20.8V33.3C491.871 34.8 488.321 35.5 485.171 35.5C481.971 35.5 479.471 34.9 477.771 33.65C476.071 32.4 475.221 30.55 475.221 28.05ZM485.321 30.75C486.721 30.75 488.321 30.55 490.221 30.1V25.25C488.471 24.85 486.821 24.6 485.221 24.6C482.321 24.6 480.921 25.65 480.921 27.65C480.921 29.75 482.371 30.75 485.321 30.75ZM500.254 33.5L501.754 28.9C504.604 30.1 507.104 30.65 509.304 30.65C511.654 30.65 512.854 29.85 512.854 28.25C512.854 27.55 512.404 27 511.604 26.5C510.804 26.05 509.804 25.65 508.654 25.3C507.504 24.95 506.354 24.55 505.204 24.05C504.054 23.6 503.054 22.85 502.254 21.85C501.454 20.85 501.054 19.55 501.054 18C501.054 15.95 501.854 14.25 503.454 12.9C505.054 11.6 507.304 10.9 510.104 10.9C512.854 10.9 515.604 11.55 518.354 12.75L516.604 17.15C514.504 16.25 512.454 15.75 510.454 15.75C508.154 15.75 507.004 16.55 507.004 18.05C507.004 18.75 507.404 19.35 508.204 19.8C509.004 20.3 510.004 20.7 511.204 21.05C512.354 21.4 513.504 21.8 514.654 22.25C515.804 22.75 516.804 23.45 517.604 24.45C518.404 25.45 518.854 26.65 518.854 28.1C518.854 30.4 518.104 32.2 516.604 33.5C515.104 34.85 512.754 35.5 509.554 35.5C506.654 35.5 503.554 34.85 500.254 33.5ZM3.7 104.3C6.25 105.35 8.75 105.85 11.2 105.85C13.3 105.85 14.85 105.35 15.85 104.3C16.85 103.25 17.35 101.65 17.35 99.45V96.55C15.75 98.85 13.4 100 10.35 100C7.6 100 5.55 99.2 4.2 97.5C2.8 95.85 2.15 93.5 2.15 90.5V76.4H7.8V89.9C7.8 93.4 9.1 95.15 11.7 95.15C14.2 95.15 16.1 93.7 17.35 90.7V76.4H23V99.45C23 106.95 19.15 110.7 11.5 110.7C8.1 110.7 5 110.1 2.15 108.8L3.7 104.3ZM42.6707 92.15V80.55L38.2707 80.25V76.4H42.8207L43.4207 68.45H48.3207V76.4H55.4207L54.6707 80.55H48.3207V91.4C48.3207 92.9 48.5707 93.95 49.1207 94.65C49.6707 95.35 50.5707 95.65 51.7707 95.65C52.8207 95.65 54.0707 95.4 55.4707 94.85L56.5207 99.3C54.4207 100.1 52.3707 100.5 50.3207 100.5C45.2207 100.5 42.6707 97.75 42.6707 92.15ZM59.5473 88.25C59.5473 84.4 60.4973 81.4 62.4973 79.2C64.4973 77 67.1973 75.9 70.6473 75.9C73.9973 75.9 76.5473 77.05 78.2973 79.35C79.9973 81.65 80.8973 84.85 80.8973 88.95L80.5473 89.5H65.4473C65.5473 91.55 66.1473 93.1 67.2473 94.1C68.3473 95.15 69.9973 95.65 72.2473 95.65C74.4473 95.65 76.6473 95.15 78.8973 94.1L80.3473 98.45C77.5973 99.85 74.6973 100.5 71.6473 100.5C67.6473 100.5 64.5973 99.4 62.5973 97.2C60.5473 95 59.5473 92 59.5473 88.25ZM65.4973 85.75H75.3973C75.0973 82.3 73.5973 80.55 70.7973 80.55C69.2973 80.55 68.0473 81 67.1473 81.9C66.2473 82.8 65.6973 84.05 65.4973 85.75ZM85.0844 88.2C85.0844 84.45 86.0344 81.45 87.9844 79.25C89.8844 77.05 92.8344 75.9 96.7844 75.9C99.4844 75.9 102.034 76.4 104.434 77.4L102.984 81.95C100.984 81.15 99.0844 80.75 97.2844 80.75C95.1844 80.75 93.5844 81.4 92.5344 82.7C91.4844 84 90.9844 85.8 90.9844 88.2C90.9844 90.6 91.4844 92.45 92.5344 93.75C93.5844 95.05 95.1844 95.65 97.2844 95.65C99.1344 95.65 101.034 95.25 102.984 94.35L104.434 98.9C102.184 100 99.6344 100.5 96.7844 100.5C92.7344 100.5 89.7844 99.45 87.8844 97.25C85.9844 95.05 85.0844 92.05 85.0844 88.2ZM109.48 100V76.4H114.03L114.53 79.95C116.23 77.25 118.78 75.9 122.13 75.9C124.83 75.9 126.83 76.75 128.23 78.45C129.63 80.15 130.33 82.45 130.33 85.4V100H124.68V86C124.68 82.5 123.38 80.75 120.78 80.75C118.28 80.75 116.38 82.25 115.08 85.2V100H109.48ZM135.426 88.2C135.426 84.35 136.426 81.35 138.476 79.15C140.476 77 143.326 75.9 147.026 75.9C150.726 75.9 153.576 77 155.576 79.15C157.576 81.3 158.626 84.3 158.626 88.2C158.626 92.1 157.576 95.15 155.576 97.3C153.576 99.45 150.726 100.5 147.026 100.5C143.326 100.5 140.476 99.45 138.476 97.25C136.426 95.1 135.426 92.1 135.426 88.2ZM141.326 88.2C141.326 90.65 141.826 92.5 142.826 93.75C143.826 95.05 145.226 95.65 147.026 95.65C148.826 95.65 150.226 95.05 151.226 93.75C152.226 92.5 152.726 90.65 152.726 88.2C152.726 85.8 152.226 83.95 151.226 82.65C150.226 81.4 148.826 80.75 147.026 80.75C145.226 80.75 143.826 81.4 142.826 82.65C141.826 83.95 141.326 85.8 141.326 88.2ZM164.119 91.9V66.6L169.719 65.65V91.5C169.719 94.35 171.019 95.75 173.719 95.75L173.219 100.5C167.119 100.5 164.119 97.65 164.119 91.9ZM176.588 88.2C176.588 84.35 177.588 81.35 179.638 79.15C181.638 77 184.488 75.9 188.188 75.9C191.888 75.9 194.738 77 196.738 79.15C198.738 81.3 199.788 84.3 199.788 88.2C199.788 92.1 198.738 95.15 196.738 97.3C194.738 99.45 191.888 100.5 188.188 100.5C184.488 100.5 181.638 99.45 179.638 97.25C177.588 95.1 176.588 92.1 176.588 88.2ZM182.488 88.2C182.488 90.65 182.988 92.5 183.988 93.75C184.988 95.05 186.388 95.65 188.188 95.65C189.988 95.65 191.388 95.05 192.388 93.75C193.388 92.5 193.888 90.65 193.888 88.2C193.888 85.8 193.388 83.95 192.388 82.65C191.388 81.4 189.988 80.75 188.188 80.75C186.388 80.75 184.988 81.4 183.988 82.65C182.988 83.95 182.488 85.8 182.488 88.2ZM186.088 72.8L189.688 65.85H195.138L190.488 72.8H186.088ZM206.281 104.35C208.931 105.35 211.431 105.85 213.731 105.85C218.031 105.85 220.181 103.8 220.181 99.7V96.4C218.531 98.8 216.231 100 213.331 100C210.481 100 208.231 98.95 206.531 96.85C204.831 94.75 203.981 91.85 203.981 88.05C203.981 84.35 205.031 81.4 207.131 79.2C209.231 77 212.131 75.9 215.831 75.9C219.331 75.9 222.681 76.55 225.831 77.85V99.7C225.831 103.2 224.831 105.9 222.881 107.8C220.931 109.75 217.931 110.7 213.931 110.7C210.731 110.7 207.681 110.1 204.731 108.85L206.281 104.35ZM214.531 95.15C216.981 95.15 218.881 93.7 220.181 90.8V81.25C218.881 80.95 217.431 80.75 215.831 80.75C213.931 80.75 212.431 81.4 211.431 82.65C210.381 83.9 209.881 85.7 209.881 88.05C209.881 90.45 210.281 92.25 211.131 93.4C211.981 94.6 213.131 95.15 214.531 95.15ZM236.876 72.15C235.976 72.15 235.176 71.85 234.526 71.2C233.826 70.6 233.526 69.8 233.526 68.9C233.526 68 233.826 67.25 234.526 66.6C235.176 66 235.976 65.65 236.876 65.65C237.726 65.65 238.476 66 239.126 66.6C239.776 67.25 240.126 68 240.126 68.9C240.126 69.8 239.776 70.6 239.126 71.2C238.476 71.85 237.726 72.15 236.876 72.15ZM234.026 100V80.55L230.026 80.25V76.4H239.676V100H234.026ZM245.192 88.2C245.192 84.45 246.142 81.45 248.092 79.25C249.992 77.05 252.942 75.9 256.892 75.9C259.592 75.9 262.142 76.4 264.542 77.4L263.092 81.95C261.092 81.15 259.192 80.75 257.392 80.75C255.292 80.75 253.692 81.4 252.642 82.7C251.592 84 251.092 85.8 251.092 88.2C251.092 90.6 251.592 92.45 252.642 93.75C253.692 95.05 255.292 95.65 257.392 95.65C259.242 95.65 261.142 95.25 263.092 94.35L264.542 98.9C262.292 100 259.742 100.5 256.892 100.5C252.842 100.5 249.892 99.45 247.992 97.25C246.092 95.05 245.192 92.05 245.192 88.2ZM268.288 93.05C268.288 90.95 269.088 89.25 270.688 88C272.288 86.8 274.638 86.15 277.638 86.15C279.438 86.15 281.338 86.4 283.288 86.9V85.5C283.288 83.9 282.888 82.7 282.188 81.9C281.438 81.15 280.088 80.75 278.188 80.75C276.288 80.75 273.938 81.25 271.138 82.15L269.638 77.8C272.888 76.55 275.888 75.9 278.638 75.9C282.288 75.9 284.938 76.7 286.538 78.3C288.138 79.9 288.938 82.4 288.938 85.8V98.3C284.938 99.8 281.388 100.5 278.238 100.5C275.038 100.5 272.538 99.9 270.838 98.65C269.138 97.4 268.288 95.55 268.288 93.05ZM278.388 95.75C279.788 95.75 281.388 95.55 283.288 95.1V90.25C281.538 89.85 279.888 89.6 278.288 89.6C275.388 89.6 273.988 90.65 273.988 92.65C273.988 94.75 275.438 95.75 278.388 95.75ZM293.32 98.5L294.82 93.9C297.67 95.1 300.17 95.65 302.37 95.65C304.72 95.65 305.92 94.85 305.92 93.25C305.92 92.55 305.47 92 304.67 91.5C303.87 91.05 302.87 90.65 301.72 90.3C300.57 89.95 299.42 89.55 298.27 89.05C297.12 88.6 296.12 87.85 295.32 86.85C294.52 85.85 294.12 84.55 294.12 83C294.12 80.95 294.92 79.25 296.52 77.9C298.12 76.6 300.37 75.9 303.17 75.9C305.92 75.9 308.67 76.55 311.42 77.75L309.67 82.15C307.57 81.25 305.52 80.75 303.52 80.75C301.22 80.75 300.07 81.55 300.07 83.05C300.07 83.75 300.47 84.35 301.27 84.8C302.07 85.3 303.07 85.7 304.27 86.05C305.42 86.4 306.57 86.8 307.72 87.25C308.87 87.75 309.87 88.45 310.67 89.45C311.47 90.45 311.92 91.65 311.92 93.1C311.92 95.4 311.17 97.2 309.67 98.5C308.17 99.85 305.82 100.5 302.62 100.5C299.72 100.5 296.62 99.85 293.32 98.5ZM315.653 97.1C315.653 96.15 315.953 95.35 316.653 94.7C317.303 94.05 318.153 93.7 319.153 93.7C320.153 93.7 320.953 94.05 321.653 94.7C322.353 95.35 322.703 96.15 322.703 97.1C322.703 98.1 322.353 98.9 321.653 99.55C320.953 100.2 320.153 100.5 319.153 100.5C318.153 100.5 317.303 100.2 316.653 99.55C315.953 98.9 315.653 98.1 315.653 97.1Z" fill="#1E1E1E"/>
</svg>
